<svg xmlns="http://www.w3.org/2000/svg" viewBox="0 0 192 192" fill="none">
  <rect width="192" height="192" rx="36" fill="#0a0e1a"/>
  <path d="M96 36c-16.569 0-30 13.431-30 30v18H48c0 19.882 14.495 36.417 33.6 39.453L78 132h-12v12h60v-12h-12l-3.6-8.547C129.505 120.417 144 103.882 144 84h-18V66c0-16.569-13.431-30-30-30z" fill="url(#g1)"/>
  <path d="M66 84H48c0 15 9 27 18 33V84zM126 84h18c0 15-9 27-18 33V84z" fill="url(#g2)" opacity=".7"/>
  <defs>
    <linearGradient id="g1" x1="66" y1="36" x2="126" y2="144" gradientUnits="userSpaceOnUse">
      <stop offset="0%" stop-color="#ec4899"/>
      <stop offset="50%" stop-color="#8b5cf6"/>
      <stop offset="100%" stop-color="#38bdf8"/>
    </linearGradient>
    <linearGradient id="g2" x1="48" y1="84" x2="144" y2="117" gradientUnits="userSpaceOnUse">
      <stop offset="0%" stop-color="#ec4899"/>
      <stop offset="100%" stop-color="#8b5cf6"/>
    </linearGradient>
  </defs>
</svg>
